<?xml version="1.0" standalone="no"?>
<!DOCTYPE svg PUBLIC "-//W3C//DTD SVG 20010904//EN"
 "http://www.w3.org/TR/2001/REC-SVG-20010904/DTD/svg10.dtd">
<svg version="1.0" xmlns="http://www.w3.org/2000/svg"
 width="256.000000pt" height="256.000000pt" viewBox="0 0 256.000000 256.000000"
 preserveAspectRatio="xMidYMid meet">

  <g transform="translate(0.000000,256.000000) scale(0.100000,-0.100000)"
    fill="#59C7F1" stroke="none">
<path d="M565 2551 c-301 -37 -520 -258 -555 -558 -13 -115 -13 -1311 0 -1426
30 -259 205 -467 455 -539 l80 -23 735 0 735 0 80 23 c250 72 425 280 455 539
13 116 13 1311 0 1427 -30 257 -201 462 -451 537 -73 23 -80 23 -774 25 -385
1 -727 -1 -760 -5z m549 -563 c17 -18 94 -142 170 -275 76 -134 141 -243 145
-243 3 0 35 53 71 116 78 140 103 164 170 164 37 0 55 -6 78 -25 28 -23 370
-601 361 -609 -6 -5 -100 -33 -159 -48 -34 -8 -109 -13 -195 -12 -164 1 -234
17 -399 89 -270 117 -453 122 -768 19 -77 -25 -142 -43 -145 -41 -8 9 477 841
508 870 24 22 39 27 80 27 44 0 55 -4 83 -32z m-14 -909 c82 -13 182 -55 262
-109 104 -72 194 -109 286 -120 105 -12 156 -3 433 76 12 3 20 -7 29 -41 8
-27 9 -50 4 -54 -5 -5 -70 -26 -144 -47 -122 -35 -146 -39 -255 -39 -158 0
-250 28 -389 120 -146 96 -186 109 -336 109 -156 0 -190 -12 -375 -134 l-133
-89 -26 39 c-14 22 -26 43 -26 47 1 10 230 163 285 191 105 52 255 72 385 51z
m38 -214 c73 -17 151 -55 257 -124 110 -72 171 -93 290 -99 95 -4 108 -2 253
39 126 35 155 41 162 29 11 -18 23 -81 16 -87 -3 -3 -67 -23 -143 -45 -274
-78 -440 -57 -650 81 -144 93 -206 113 -350 112 -117 0 -194 -30 -353 -135
-72 -47 -134 -86 -138 -86 -8 0 -52 66 -52 78 0 11 211 152 276 185 51 25 131
53 174 60 59 10 200 6 258 -8z"/>
</g>
</svg>
